<?xml version="1.0" encoding="UTF-8"?>
<!DOCTYPE svg PUBLIC "-//W3C//DTD SVG 1.1//EN" "http://www.w3.org/Graphics/SVG/1.1/DTD/svg11.dtd">
<svg xmlns="http://www.w3.org/2000/svg" version="1.1" width="256px" height="256px" style="shape-rendering:geometricPrecision; text-rendering:geometricPrecision; image-rendering:optimizeQuality; fill-rule:evenodd; clip-rule:evenodd" xmlns:xlink="http://www.w3.org/1999/xlink">
<g><path style="opacity:1" fill="#fdfdfe" d="M -0.5,-0.5 C 84.8333,-0.5 170.167,-0.5 255.5,-0.5C 255.5,84.8333 255.5,170.167 255.5,255.5C 170.167,255.5 84.8333,255.5 -0.5,255.5C -0.5,170.167 -0.5,84.8333 -0.5,-0.5 Z"/></g>
<g><path style="opacity:1" fill="#113a6f" d="M 119.5,8.5 C 124.485,7.95976 129.151,8.79309 133.5,11C 162.337,27.9194 191.337,44.5861 220.5,61C 224.333,63.5 227.5,66.6667 230,70.5C 230.667,107.5 230.667,144.5 230,181.5C 228.747,187.09 225.581,191.257 220.5,194C 192.003,210.081 163.67,226.414 135.5,243C 128.972,247.098 122.305,247.432 115.5,244C 84.7537,226.545 54.2537,208.712 24,190.5C 22.4138,188.33 21.0804,185.996 20,183.5C 19.0126,145.082 19.3459,106.749 21,68.5C 23.425,64.8655 26.5917,62.0322 30.5,60C 60.5566,43.3117 90.2233,26.145 119.5,8.5 Z"/></g>
<g><path style="opacity:1" fill="#fcfcfd" d="M 220.5,74.5 C 220.829,87.0113 220.495,99.3446 219.5,111.5C 212.292,107.128 204.959,102.962 197.5,99C 194.5,98.3333 191.5,98.3333 188.5,99C 180.422,103.121 172.589,107.621 165,112.5C 164.667,103.167 164.333,93.8333 164,84.5C 162.6,81.0976 160.433,78.2643 157.5,76C 148.833,71 140.167,66 131.5,61C 127.5,60.3333 123.5,60.3333 119.5,61C 111.977,64.9255 104.644,69.0922 97.5,73.5C 96.8333,72.8333 96.1667,72.1667 95.5,71.5C 93.7801,68.2689 91.4468,65.4356 88.5,63C 81.1338,59.3222 74.1338,55.1555 67.5,50.5C 84.0019,40.4146 100.669,30.5813 117.5,21C 123.014,17.581 128.347,17.9144 133.5,22C 161.67,38.586 190.003,54.9193 218.5,71C 219.823,71.8159 220.489,72.9826 220.5,74.5 Z"/></g>
<g><path style="opacity:1" fill="#a8b7ca" d="M 60.5,58.5 C 58.0971,58.448 55.7638,58.7814 53.5,59.5C 54.3121,58.0069 55.6455,57.3402 57.5,57.5C 58.7261,57.5195 59.7261,57.8529 60.5,58.5 Z"/></g>
<g><path style="opacity:1" fill="#fdfdfd" d="M 60.5,58.5 C 69.8719,62.8445 78.5385,68.1779 86.5,74.5C 87.156,97.1917 86.4894,119.525 84.5,141.5C 77.6976,137.931 71.0309,134.098 64.5,130C 60.9279,128.595 57.2613,128.262 53.5,129C 45.9768,132.926 38.6435,137.092 31.5,141.5C 29.5106,119.525 28.844,97.1917 29.5,74.5C 30.2899,73.2058 31.2899,72.0391 32.5,71C 39.2336,66.6341 46.2336,62.8008 53.5,59.5C 55.7638,58.7814 58.0971,58.448 60.5,58.5 Z"/></g>
<g><path style="opacity:1" fill="#fcfdfd" d="M 98.5,222.5 C 97.5055,177.239 97.1721,131.905 97.5,86.5C 98.0312,84.3763 99.3645,82.8763 101.5,82C 109.427,77.5379 117.427,73.3713 125.5,69.5C 126.5,69.6667 127.5,69.8333 128.5,70C 136.833,75.1667 145.167,80.3333 153.5,85.5C 154.828,130.796 154.828,176.129 153.5,221.5C 145.833,226 138.167,230.5 130.5,235C 125.141,237.274 120.141,236.608 115.5,233C 109.769,229.475 104.103,225.975 98.5,222.5 Z"/></g>
<g><path style="opacity:1" fill="#7089a8" d="M 95.5,71.5 C 96.1667,72.1667 96.8333,72.8333 97.5,73.5C 97.44,74.0431 97.1067,74.3764 96.5,74.5C 95.6143,73.675 95.281,72.675 95.5,71.5 Z"/></g>
<g><path style="opacity:1" fill="#e95125" d="M 73.5,86.5 C 74.4816,89.9619 74.815,93.6286 74.5,97.5C 71.3388,98.9131 68.3388,100.58 65.5,102.5C 64.5184,99.0381 64.185,95.3714 64.5,91.5C 67.2402,89.4405 70.2402,87.7738 73.5,86.5 Z"/></g>
<g><path style="opacity:1" fill="#f5b5a5" d="M 73.5,86.5 C 73.56,85.9569 73.8933,85.6236 74.5,85.5C 75.8095,89.6493 75.8095,93.6493 74.5,97.5C 74.815,93.6286 74.4816,89.9619 73.5,86.5 Z"/></g>
<g><path style="opacity:1" fill="#899db6" d="M 29.5,74.5 C 28.844,97.1917 29.5106,119.525 31.5,141.5C 30.791,142.404 29.791,142.737 28.5,142.5C 28.1692,119.661 28.5025,96.9939 29.5,74.5 Z"/></g>
<g><path style="opacity:1" fill="#6c85a4" d="M 220.5,74.5 C 221.825,87.0062 221.825,99.6729 220.5,112.5C 219.893,112.376 219.56,112.043 219.5,111.5C 220.495,99.3446 220.829,87.0113 220.5,74.5 Z"/></g>
<g><path style="opacity:1" fill="#f4a997" d="M 64.5,91.5 C 64.185,95.3714 64.5184,99.0381 65.5,102.5C 65.44,103.043 65.1067,103.376 64.5,103.5C 63.1905,99.3507 63.1905,95.3507 64.5,91.5 Z"/></g>
<g><path style="opacity:1" fill="#7c92af" d="M 86.5,74.5 C 87.4975,96.9939 87.8308,119.661 87.5,142.5C 86.209,142.737 85.209,142.404 84.5,141.5C 86.4894,119.525 87.156,97.1917 86.5,74.5 Z"/></g>
<g><path style="opacity:1" fill="#758fad" d="M 140.5,101.5 C 140.56,100.957 140.893,100.624 141.5,100.5C 142.809,104.649 142.809,108.649 141.5,112.5C 141.815,108.629 141.482,104.962 140.5,101.5 Z"/></g>
<g><path style="opacity:1" fill="#0f386d" d="M 140.5,101.5 C 141.482,104.962 141.815,108.629 141.5,112.5C 138.797,114.181 136.131,115.847 133.5,117.5C 131.586,114.316 130.92,110.649 131.5,106.5C 134.331,104.583 137.331,102.917 140.5,101.5 Z"/></g>
<g><path style="opacity:1" fill="#b4c1d2" d="M 131.5,106.5 C 130.92,110.649 131.586,114.316 133.5,117.5C 132.791,118.404 131.791,118.737 130.5,118.5C 130.183,114.298 130.517,110.298 131.5,106.5 Z"/></g>
<g><path style="opacity:1" fill="#fcfdfd" d="M 165.5,214.5 C 164.502,184.338 164.169,154.005 164.5,123.5C 172.806,118.678 181.139,113.845 189.5,109C 193.909,108.195 197.909,109.195 201.5,112C 207.336,115.752 213.336,119.252 219.5,122.5C 219.833,132.333 220.167,142.167 220.5,152C 220.644,162.594 220.144,173.094 219,183.5C 201.221,193.971 183.388,204.305 165.5,214.5 Z"/></g>
<g><path style="opacity:1" fill="#10396e" d="M 73.5,111.5 C 74.4816,114.962 74.815,118.629 74.5,122.5C 71.3388,123.913 68.3388,125.58 65.5,127.5C 64.5184,124.038 64.185,120.371 64.5,116.5C 67.0078,114.076 70.0078,112.41 73.5,111.5 Z"/></g>
<g><path style="opacity:1" fill="#8da0b9" d="M 64.5,116.5 C 64.185,120.371 64.5184,124.038 65.5,127.5C 65.44,128.043 65.1067,128.376 64.5,128.5C 63.1905,124.351 63.1905,120.351 64.5,116.5 Z"/></g>
<g><path style="opacity:1" fill="#9cadc3" d="M 73.5,111.5 C 73.56,110.957 73.8933,110.624 74.5,110.5C 75.8095,114.649 75.8095,118.649 74.5,122.5C 74.815,118.629 74.4816,114.962 73.5,111.5 Z"/></g>
<g><path style="opacity:1" fill="#ea5127" d="M 140.5,126.5 C 141.482,129.962 141.815,133.629 141.5,137.5C 138.797,139.181 136.131,140.847 133.5,142.5C 131.586,139.316 130.92,135.649 131.5,131.5C 134.24,129.44 137.24,127.774 140.5,126.5 Z"/></g>
<g><path style="opacity:1" fill="#f49282" d="M 140.5,126.5 C 140.56,125.957 140.893,125.624 141.5,125.5C 142.809,129.649 142.809,133.649 141.5,137.5C 141.815,133.629 141.482,129.962 140.5,126.5 Z"/></g>
<g><path style="opacity:1" fill="#cbd4e0" d="M 97.5,86.5 C 97.1721,131.905 97.5055,177.239 98.5,222.5C 97.1669,200.177 96.5003,177.51 96.5,154.5C 96.5,131.664 96.8334,108.998 97.5,86.5 Z"/></g>
<g><path style="opacity:1" fill="#f8c4bd" d="M 131.5,131.5 C 130.92,135.649 131.586,139.316 133.5,142.5C 132.791,143.404 131.791,143.737 130.5,143.5C 130.183,139.298 130.517,135.298 131.5,131.5 Z"/></g>
<g><path style="opacity:1" fill="#fbfbfc" d="M 54.5,138.5 C 56.5273,138.338 58.5273,138.505 60.5,139C 68.8333,143.833 77.1667,148.667 85.5,153.5C 86.8333,174.167 86.8333,194.833 85.5,215.5C 67.8333,205.333 50.1667,195.167 32.5,185C 30.9512,183.786 29.7845,182.286 29,180.5C 28.168,171.482 28.3347,162.482 29.5,153.5C 38.0625,148.726 46.3959,143.726 54.5,138.5 Z"/></g>
<g><path style="opacity:1" fill="#6481a2" d="M 164.5,123.5 C 164.169,154.005 164.502,184.338 165.5,214.5C 165.44,215.043 165.107,215.376 164.5,215.5C 163.17,184.669 163.17,154.003 164.5,123.5 Z"/></g>
<g><path style="opacity:1" fill="#4f6cba" d="M 201.5,154.5 C 200.518,151.038 200.185,147.371 200.5,143.5C 203.276,141.608 206.276,139.941 209.5,138.5C 210.833,142.5 210.833,146.5 209.5,150.5C 206.807,151.847 204.14,153.18 201.5,154.5 Z"/></g>
<g><path style="opacity:1" fill="#8b9cd1" d="M 200.5,143.5 C 200.185,147.371 200.518,151.038 201.5,154.5C 201.44,155.043 201.107,155.376 200.5,155.5C 199.191,151.351 199.191,147.351 200.5,143.5 Z"/></g>
<g><path style="opacity:1" fill="#758fac" d="M 140.5,151.5 C 140.56,150.957 140.893,150.624 141.5,150.5C 142.809,154.649 142.809,158.649 141.5,162.5C 141.815,158.629 141.482,154.962 140.5,151.5 Z"/></g>
<g><path style="opacity:1" fill="#10396e" d="M 140.5,151.5 C 141.482,154.962 141.815,158.629 141.5,162.5C 138.339,163.913 135.339,165.58 132.5,167.5C 131.518,164.038 131.185,160.371 131.5,156.5C 134.24,154.44 137.24,152.774 140.5,151.5 Z"/></g>
<g><path style="opacity:1" fill="#b3c0d1" d="M 131.5,156.5 C 131.185,160.371 131.518,164.038 132.5,167.5C 132.44,168.043 132.107,168.376 131.5,168.5C 130.191,164.351 130.191,160.351 131.5,156.5 Z"/></g>
<g><path style="opacity:1" fill="#113a6e" d="M 201.5,179.5 C 200.518,176.038 200.185,172.371 200.5,168.5C 203.276,166.608 206.276,164.941 209.5,163.5C 210.491,167.445 210.824,171.445 210.5,175.5C 207.419,176.538 204.419,177.872 201.5,179.5 Z"/></g>
<g><path style="opacity:1" fill="#bac0e3" d="M 73.5,168.5 C 73.56,167.957 73.8933,167.624 74.5,167.5C 75.8095,171.649 75.8095,175.649 74.5,179.5C 74.815,175.629 74.4816,171.962 73.5,168.5 Z"/></g>
<g><path style="opacity:1" fill="#4d6bb9" d="M 73.5,168.5 C 74.4816,171.962 74.815,175.629 74.5,179.5C 71.8333,181.167 69.1667,182.833 66.5,184.5C 64.5864,181.316 63.9197,177.649 64.5,173.5C 67.3037,171.595 70.3037,169.929 73.5,168.5 Z"/></g>
<g><path style="opacity:1" fill="#637fa1" d="M 200.5,168.5 C 200.185,172.371 200.518,176.038 201.5,179.5C 201.44,180.043 201.107,180.376 200.5,180.5C 199.191,176.351 199.191,172.351 200.5,168.5 Z"/></g>
<g><path style="opacity:1" fill="#a9b4dd" d="M 64.5,173.5 C 63.9197,177.649 64.5864,181.316 66.5,184.5C 65.791,185.404 64.791,185.737 63.5,185.5C 63.1832,181.298 63.5166,177.298 64.5,173.5 Z"/></g>
<g><path style="opacity:1" fill="#758fac" d="M 140.5,176.5 C 140.56,175.957 140.893,175.624 141.5,175.5C 142.809,179.649 142.809,183.649 141.5,187.5C 141.815,183.629 141.482,179.962 140.5,176.5 Z"/></g>
<g><path style="opacity:1" fill="#0f396e" d="M 140.5,176.5 C 141.482,179.962 141.815,183.629 141.5,187.5C 138.339,188.913 135.339,190.58 132.5,192.5C 131.518,189.038 131.185,185.371 131.5,181.5C 134.24,179.44 137.24,177.774 140.5,176.5 Z"/></g>
<g><path style="opacity:1" fill="#b4c1d2" d="M 131.5,181.5 C 131.185,185.371 131.518,189.038 132.5,192.5C 132.44,193.043 132.107,193.376 131.5,193.5C 130.191,189.351 130.191,185.351 131.5,181.5 Z"/></g>
<g><path style="opacity:1" fill="#748eac" d="M 140.5,201.5 C 140.56,200.957 140.893,200.624 141.5,200.5C 142.809,204.649 142.809,208.649 141.5,212.5C 141.815,208.629 141.482,204.962 140.5,201.5 Z"/></g>
<g><path style="opacity:1" fill="#0f396e" d="M 140.5,201.5 C 141.482,204.962 141.815,208.629 141.5,212.5C 138.339,213.913 135.339,215.58 132.5,217.5C 131.518,214.038 131.185,210.371 131.5,206.5C 134.008,204.076 137.008,202.41 140.5,201.5 Z"/></g>
<g><path style="opacity:1" fill="#b5c1d2" d="M 131.5,206.5 C 131.185,210.371 131.518,214.038 132.5,217.5C 132.44,218.043 132.107,218.376 131.5,218.5C 130.191,214.351 130.191,210.351 131.5,206.5 Z"/></g>
</svg>
