<?xml version="1.0" standalone="no"?>
<!DOCTYPE svg PUBLIC "-//W3C//DTD SVG 20010904//EN"
 "http://www.w3.org/TR/2001/REC-SVG-20010904/DTD/svg10.dtd">
<svg version="1.0" xmlns="http://www.w3.org/2000/svg"
 width="900.000000pt" height="351.000000pt" viewBox="0 0 900.000000 351.000000"
 preserveAspectRatio="xMidYMid meet">
<metadata>
Created by potrace 1.10, written by Peter Selinger 2001-2011
</metadata>
<g transform="translate(0.000000,351.000000) scale(0.100000,-0.100000)"
fill="#ffffff" stroke="none">
<path d="M1493 3440 c-52 -8 -170 -68 -366 -187 -48 -29 -90 -53 -92 -53 -3 0
-62 -34 -131 -75 -69 -41 -129 -75 -133 -75 -5 0 -27 -13 -49 -30 -23 -16 -45
-30 -48 -30 -4 0 -28 -13 -53 -28 -25 -16 -63 -34 -84 -41 -21 -7 -61 -29 -90
-48 -29 -19 -97 -62 -152 -95 -193 -116 -231 -155 -254 -258 -15 -68 -10
-1436 6 -1515 15 -80 59 -159 115 -210 49 -44 78 -62 288 -182 52 -30 102 -58
110 -64 8 -5 22 -12 30 -16 8 -4 47 -26 86 -50 39 -24 75 -43 78 -43 4 0 22
-11 39 -24 18 -13 46 -30 62 -38 17 -8 92 -52 169 -96 76 -45 140 -82 142 -82
2 0 37 -20 77 -45 41 -25 80 -45 86 -45 6 0 11 -3 11 -8 0 -4 24 -18 53 -31
28 -13 62 -28 74 -34 31 -14 210 -14 225 1 7 7 21 12 31 12 11 0 56 22 101 48
44 27 135 80 201 118 66 38 129 74 140 81 11 7 29 16 40 22 19 8 189 108 225
131 8 6 24 14 35 19 11 5 73 41 138 80 65 39 121 71 124 71 4 0 14 6 22 14 9
7 48 30 86 51 135 71 223 153 253 233 31 84 33 129 30 853 -3 652 -5 738 -19
759 -9 14 -19 37 -22 51 -8 33 -142 159 -200 189 -61 32 -141 77 -248 141 -97
59 -146 87 -214 123 -22 12 -58 34 -80 49 -22 15 -43 27 -46 27 -4 0 -37 18
-73 40 -37 23 -97 57 -134 77 -37 19 -74 42 -83 49 -8 8 -18 14 -22 14 -5 0
-85 45 -177 100 -80 48 -198 67 -307 50z m203 -226 c16 -10 35 -24 42 -31 7
-7 17 -13 22 -13 5 0 57 -29 117 -64 59 -35 167 -97 238 -138 72 -41 186 -108
255 -148 108 -64 210 -121 285 -160 11 -6 32 -18 46 -28 14 -9 50 -31 80 -49
76 -45 116 -89 128 -143 14 -60 14 -407 1 -415 -6 -4 -30 4 -53 16 -97 52
-113 61 -142 79 -91 56 -111 64 -170 64 -38 0 -75 -7 -100 -19 -51 -23 -205
-114 -227 -133 -10 -8 -24 -12 -33 -9 -12 5 -15 31 -15 154 -1 126 -4 153 -20
183 -10 19 -23 44 -28 56 -19 39 -271 184 -321 184 -6 0 -11 4 -11 9 0 5 -10
13 -22 17 -13 3 -30 12 -38 19 -8 7 -28 16 -45 19 -16 4 -45 19 -64 33 -29 22
-40 25 -85 20 -51 -5 -143 -52 -191 -97 -12 -11 -25 -20 -29 -20 -4 0 -22 -11
-40 -25 -41 -31 -73 -32 -87 -2 -32 69 -45 81 -164 155 -25 16 -109 56 -157
76 -27 10 -36 19 -32 30 5 13 110 79 249 156 22 12 81 46 132 76 51 30 95 54
99 54 4 0 22 11 40 25 18 14 36 25 40 25 4 0 28 13 54 29 61 38 72 40 151 37
43 -2 75 -10 95 -22z m-1033 -521 c9 -3 17 -9 17 -13 0 -5 22 -16 48 -24 26
-9 59 -24 72 -34 14 -9 41 -26 61 -37 114 -65 140 -82 145 -99 10 -32 7 -139
-5 -169 -7 -18 -11 -136 -11 -338 0 -252 -2 -309 -13 -309 -8 0 -34 11 -58 25
-24 13 -54 29 -66 35 -24 10 -32 53 -13 65 6 3 10 42 10 85 l0 79 -36 -15
c-20 -8 -45 -24 -57 -35 -11 -10 -24 -19 -29 -19 -4 0 -11 -15 -16 -32 l-8
-33 -78 -2 c-66 -2 -85 -7 -124 -31 -26 -15 -54 -31 -62 -35 -8 -4 -37 -21
-65 -37 -79 -47 -93 -53 -110 -46 -14 5 -16 46 -13 404 3 457 -3 425 106 489
31 18 64 38 72 43 8 6 25 14 37 19 11 6 24 15 28 20 3 6 15 11 25 11 10 0 25
7 34 15 21 21 58 35 76 28 8 -3 23 -8 33 -10z m970 -221 c7 -6 37 -20 67 -33
30 -13 57 -25 60 -29 8 -9 128 -80 135 -80 4 0 20 -9 36 -21 l29 -20 0 -934 0
-934 -27 -18 c-16 -11 -39 -24 -53 -31 -14 -7 -45 -26 -70 -42 -94 -62 -181
-100 -230 -100 -43 0 -133 37 -177 72 -7 5 -28 18 -48 29 -19 10 -51 28 -71
39 -20 10 -45 27 -55 36 -18 17 -19 50 -19 949 0 899 1 932 19 949 10 9 36 26
57 38 53 28 92 50 134 76 104 63 144 79 173 71 16 -4 34 -12 40 -17z m1002
-542 c46 -27 85 -50 89 -50 13 0 162 -94 179 -112 15 -18 17 -50 17 -352 -1
-182 -5 -350 -9 -374 -14 -70 -66 -121 -186 -182 -11 -5 -27 -14 -35 -20 -25
-16 -333 -196 -365 -214 -34 -18 -57 -33 -98 -59 -59 -40 -57 -64 -57 588 0
587 2 635 32 635 6 0 19 6 27 14 9 7 48 31 86 51 39 21 87 49 107 62 21 13 40
23 44 23 3 0 17 9 31 20 14 11 32 20 40 20 9 0 52 -22 98 -50z m-1955 -335
c15 -14 38 -27 152 -89 26 -14 72 -42 103 -61 l55 -36 0 -423 c0 -364 -2 -425
-15 -430 -8 -3 -20 0 -28 7 -7 7 -28 20 -47 31 -19 10 -53 28 -75 40 -22 12
-59 34 -82 49 -24 15 -45 27 -48 27 -3 0 -24 12 -48 27 -49 31 -109 66 -152
89 -106 55 -183 105 -209 138 l-31 38 -3 181 c-4 236 -4 236 61 267 29 13 80
42 115 62 34 21 64 38 67 38 2 0 24 13 47 30 48 33 110 40 138 15z"/>
<path d="M760 2296 l-45 -33 -3 -93 c-1 -51 1 -97 5 -101 9 -9 101 44 121 69
7 10 12 49 12 104 0 85 -1 88 -22 87 -13 0 -43 -15 -68 -33z"/>
<path d="M1720 2086 l-45 -33 -3 -81 c-2 -68 0 -82 13 -82 8 0 15 4 15 8 0 5
20 19 45 31 29 14 45 29 46 42 0 10 1 44 1 74 0 30 -1 60 -1 65 -2 17 -25 10
-71 -24z"/>
<path d="M1713 1729 l-43 -30 0 -80 c0 -53 4 -79 12 -79 23 0 99 52 107 73 4
12 7 49 6 82 0 52 -3 60 -20 62 -11 1 -39 -12 -62 -28z"/>
<path d="M1753 1398 c-13 -6 -23 -15 -23 -20 0 -4 -6 -8 -14 -8 -33 0 -46 -30
-46 -105 0 -41 4 -76 9 -79 5 -3 19 3 32 13 13 10 34 21 46 25 27 9 42 56 38
116 -2 25 -4 51 -4 58 -1 14 -8 14 -38 0z"/>
<path d="M1760 1042 c-24 -11 -74 -46 -82 -57 -4 -5 -8 -43 -8 -82 0 -58 3
-73 15 -73 16 0 105 60 106 72 0 4 1 35 1 68 0 90 1 87 -32 72z"/>
<path d="M1745 679 c-16 -11 -40 -24 -52 -29 -21 -9 -23 -16 -23 -95 0 -67 3
-85 14 -85 25 0 99 64 106 90 7 30 1 140 -8 140 -4 0 -20 -9 -37 -21z"/>
<path d="M2705 1560 c-61 -34 -75 -59 -75 -130 0 -83 8 -88 71 -48 30 19 60
42 67 50 15 19 13 150 -3 154 -5 1 -32 -11 -60 -26z"/>
<path d="M2738 1227 c-9 -7 -26 -19 -38 -27 -69 -47 -70 -48 -69 -113 0 -34 4
-70 8 -80 6 -17 9 -16 44 7 21 15 41 26 46 26 4 0 18 11 30 24 19 20 22 32 19
96 -3 75 -11 88 -40 67z"/>
<path d="M781 1143 c-82 -63 -81 -62 -81 -116 0 -59 8 -97 21 -97 4 0 31 14
59 32 l51 31 -3 80 c-2 44 -8 82 -13 84 -6 2 -21 -5 -34 -14z"/>
<path d="M3477 3409 c-16 -4 -37 -18 -48 -30 -19 -22 -19 -57 -19 -1653 0
-1531 2 -1632 18 -1651 32 -38 67 -50 104 -35 18 7 39 18 46 23 19 15 18 3310
-2 3326 -23 19 -69 28 -99 20z"/>
<path d="M4865 2934 c-33 -8 -69 -19 -80 -24 -148 -68 -154 -72 -221 -137
-102 -100 -151 -199 -174 -355 -11 -72 -10 -98 4 -182 9 -53 20 -105 25 -114
4 -9 17 -35 27 -57 64 -134 162 -224 314 -288 82 -34 112 -40 239 -44 154 -6
220 6 338 64 80 39 173 119 173 149 0 20 -156 173 -177 174 -6 0 -18 -6 -25
-13 -27 -26 -94 -73 -132 -92 -32 -16 -59 -20 -140 -20 -96 0 -104 2 -164 34
-70 38 -122 92 -154 161 -31 65 -30 234 0 301 24 51 89 121 136 147 139 74
279 65 400 -26 33 -24 70 -44 84 -44 17 0 47 23 104 80 90 91 90 90 12 152
-24 19 -50 40 -57 45 -42 35 -128 70 -230 94 -63 15 -228 12 -302 -5z"/>
<path d="M5773 2923 c-17 -6 -19 -1158 -2 -1168 17 -11 262 -5 276 7 10 8 13
121 13 564 0 335 -4 563 -10 578 l-10 26 -127 -1 c-71 0 -134 -3 -140 -6z"/>
<path d="M6272 2918 c-15 -15 -16 -206 -2 -228 7 -12 41 -16 177 -18 92 -2
169 -5 171 -7 2 -1 3 -200 2 -442 0 -346 2 -442 13 -456 11 -16 30 -18 147
-18 117 0 136 2 147 17 11 15 13 110 13 453 -1 256 3 438 9 444 5 5 78 8 162
8 119 -1 158 2 172 13 16 12 19 32 22 120 4 95 2 107 -15 116 -29 15 -1002 14
-1018 -2z"/>
<path d="M7340 2915 c-10 -12 -10 -21 -1 -38 14 -27 13 -25 241 -399 l185
-303 2 -200 c2 -110 5 -206 8 -212 6 -18 266 -18 283 -1 8 8 12 67 12 200 0
196 2 208 49 283 14 22 31 49 37 61 14 26 212 354 236 392 10 15 21 34 25 42
3 8 18 33 32 55 63 98 64 102 57 120 -4 12 -30 15 -143 15 l-138 0 -58 -98
c-71 -119 -76 -127 -107 -177 -14 -22 -34 -56 -44 -76 -33 -63 -72 -114 -86
-114 -9 0 -60 75 -117 170 -57 94 -121 198 -143 233 l-39 62 -139 0 c-113 0
-142 -3 -152 -15z"/>
<path d="M6945 1558 c-334 -68 -533 -321 -511 -648 15 -228 130 -398 336 -497
36 -18 85 -38 110 -45 60 -18 329 -18 390 0 75 22 182 80 230 125 81 76 81 68
3 141 -71 67 -117 106 -126 106 -3 0 -29 -20 -57 -44 -28 -24 -78 -54 -111
-66 -80 -30 -209 -24 -284 13 -64 31 -130 102 -161 173 -34 77 -34 201 0 277
44 100 128 174 221 195 138 32 272 -1 349 -87 33 -37 58 -26 152 64 l89 85
-60 56 c-68 63 -194 129 -277 145 -78 15 -236 19 -293 7z"/>
<path d="M3946 1528 c-14 -20 -16 -85 -16 -579 0 -526 1 -557 18 -572 15 -14
41 -17 143 -17 84 0 129 4 137 12 8 8 12 56 12 148 0 92 4 140 12 148 8 8 57
12 152 12 134 1 163 4 263 29 51 13 129 56 174 96 56 49 87 97 110 166 17 54
20 80 16 164 -3 55 -13 120 -22 143 -38 105 -137 192 -271 239 -79 27 -80 27
-395 31 l-317 3 -16 -23z m647 -271 c130 -99 84 -287 -77 -316 -76 -14 -231
-14 -257 -1 -18 10 -19 23 -19 174 0 89 3 166 8 170 4 4 75 6 158 4 147 -3
151 -4 187 -31z"/>
<path d="M5534 1542 c-7 -4 -31 -52 -54 -107 -23 -55 -56 -129 -72 -165 -69
-150 -78 -169 -78 -174 0 -5 -35 -83 -90 -201 -29 -62 -63 -136 -99 -217 -11
-26 -21 -49 -21 -52 0 -5 -86 -192 -100 -217 -6 -12 -4 -22 9 -33 14 -13 42
-16 149 -16 94 0 133 4 139 12 18 29 73 163 73 179 0 10 12 27 26 38 25 20 39
21 248 21 121 0 231 -3 242 -6 23 -6 34 -25 84 -139 16 -38 34 -77 39 -85 6
-12 36 -16 143 -18 121 -2 136 -1 151 16 17 18 16 22 -9 73 -27 56 -42 89 -68
149 -30 72 -65 149 -160 353 -20 43 -36 80 -36 82 0 2 -16 38 -36 82 -40 86
-61 133 -94 208 -12 28 -30 68 -40 90 -10 22 -28 61 -39 88 l-20 47 -138 0
c-76 0 -143 -4 -149 -8z m163 -384 c9 -18 23 -46 29 -63 6 -16 29 -73 51 -126
22 -52 37 -101 35 -107 -5 -17 -269 -17 -275 1 -4 11 18 79 43 132 5 11 21 49
35 84 25 60 53 111 61 111 2 0 11 -15 21 -32z"/>
<path d="M7816 1535 c-14 -15 -16 -77 -16 -579 0 -533 1 -564 18 -579 15 -14
41 -17 140 -17 79 0 123 4 128 11 4 7 6 69 5 139 l-2 127 44 49 c24 27 52 59
63 72 35 42 56 30 150 -85 49 -60 91 -110 94 -113 3 -3 32 -39 65 -80 102
-128 84 -120 261 -120 144 0 153 1 159 20 5 14 -6 36 -39 77 -53 67 -171 215
-256 323 -33 41 -87 109 -120 150 -32 41 -59 81 -60 88 0 7 21 34 48 61 26 26
94 99 152 161 58 63 138 149 178 191 106 111 104 113 -85 117 l-151 3 -99
-103 c-259 -269 -303 -315 -328 -345 -28 -35 -48 -41 -62 -20 -4 6 -10 113
-13 237 l-5 225 -126 3 c-106 2 -130 0 -143 -13z"/>
</g>
</svg>
